<?xml version="1.0" encoding="utf-8"?>
<!DOCTYPE svg PUBLIC "-//W3C//DTD SVG 1.1//EN" "http://www.w3.org/Graphics/SVG/1.1/DTD/svg11.dtd">
<svg version="1.1" id="图形" xmlns="http://www.w3.org/2000/svg" xmlns:xlink="http://www.w3.org/1999/xlink" x="0px" y="0px" width="1024px" height="1024px" viewBox="0 0 1024 1024" enable-background="new 0 0 1024 1024" xml:space="preserve">
  <path fill="#272636" d="M510.437923 790.334561c-134.735657-165.942403-185.28903-221.691101-220.156142-261.966387-68.561515-81.864496-254.374478-221.034139-254.374478-370.436844 0-171.915441 183.317119-194.428178 237.264798-194.428178s211.537857 34.792411 211.537857 104.377232c0-65.491597-40.932248-260.425288-106.423845-270.152836 122.796744 0 276.292674 0 276.292674 0s-102.33062 85.957721-102.33062 270.152836c0-57.141418 147.356093-102.33062 225.127364-102.33062s207.590965 67.538209 207.590965 194.428178c0 140.022057-139.079592 262.683724-250.569826 366.343619C617.332489 635.163479 510.437923 790.334561 510.437923 790.334561zM290.282804 528.368174c-68.561515-81.864496-254.374478-206.707852-254.374478-370.436844 0-171.915441 183.317119-194.428178 237.264798-194.428178" transform="translate(0, 812) scale(1, -1)"/>
</svg>
