<?xml version="1.0" encoding="utf-8"?>
<!DOCTYPE svg PUBLIC "-//W3C//DTD SVG 1.1//EN" "http://www.w3.org/Graphics/SVG/1.1/DTD/svg11.dtd">
<svg version="1.1" id="图形" xmlns="http://www.w3.org/2000/svg" xmlns:xlink="http://www.w3.org/1999/xlink" x="0px" y="0px" width="1024px" height="1024px" viewBox="0 0 1024 1024" enable-background="new 0 0 1024 1024" xml:space="preserve">
  <path fill="#272636" d="M752.358765 419.05042c-44.259016 0-85.552491-12.669554-120.476909-34.561144l-1.532913 5.1503c59.306734 40.989553 98.17395 109.450784 98.17395 186.999998 0 125.464503-101.709473 227.173976-227.173976 227.173976s-227.173976-101.709473-227.173976-227.173976c0-70.428026 32.050973-133.367497 82.359776-175.036525-25.536606 9.93835-53.309136 15.400758-82.359776 15.400758-125.464503 0-227.173976-101.709473-227.173976-227.173976 0-125.464503 101.709473-227.173976 227.173976-227.173976 85.46551 0 159.89364 47.204092 198.672852 116.953665 48.374754-160.595628-74.093509-291.609521-74.093509-291.609521s61.398372 0 210.801077 0c-118.703519 160.14128-58.624189 298.66624-58.624189 298.66624l0.022513 0.052189c37.942147-72.519664 113.88784-122.015961 201.405079-122.015961 125.464503 0 227.173976 101.709473 227.173976 227.173976C979.532741 317.34197 877.823268 419.05042 752.358765 419.05042z" transform="translate(0, 812) scale(1, -1)"/>
</svg>
